<?xml version="1.0" encoding="UTF-8" standalone="no"?>
<svg
   width="60"
   height="85"
   fill-rule="evenodd"
   version="1.1"
   id="svg46"
   sodipodi:docname="1.svg"
   inkscape:version="1.1.2 (0a00cf5339, 2022-02-04, custom)"
   xmlns:inkscape="http://www.inkscape.org/namespaces/inkscape"
   xmlns:sodipodi="http://sodipodi.sourceforge.net/DTD/sodipodi-0.dtd"
   xmlns="http://www.w3.org/2000/svg"
   xmlns:svg="http://www.w3.org/2000/svg">
  <defs
     id="defs50" />
  <sodipodi:namedview
     id="namedview48"
     pagecolor="#ffffff"
     bordercolor="#666666"
     borderopacity="1.0"
     inkscape:pageshadow="2"
     inkscape:pageopacity="0.0"
     inkscape:pagecheckerboard="0"
     showgrid="false"
     inkscape:zoom="9.4117647"
     inkscape:cx="29.378125"
     inkscape:cy="42.5"
     inkscape:window-width="1920"
     inkscape:window-height="1009"
     inkscape:window-x="-8"
     inkscape:window-y="-8"
     inkscape:window-maximized="1"
     inkscape:current-layer="svg46" />
  <rect
     width="60"
     height="85"
     fill="#4a3383"
     rx="6"
     id="rect2"
     x="0"
     y="0"
     style="display:inline" />
  <g
     fill="#ffffff"
     id="g18"
     style="display:inline">
    <path
       d="m 31.617,78.891 c -0.573,-0.369 -0.65,-0.46 -0.573,-0.678 0.033,-0.094 0.099,-0.224 0.145,-0.289 0.08,-0.112 0.07,-0.125 -0.24,-0.277 a 3.42,3.42 0 0 1 -0.604,-0.402 c -0.332,-0.288 -0.33,-0.348 0.028,-0.874 0.392,-0.576 0.615,-0.615 1.195,-0.206 l 0.274,0.193 0.143,-0.184 a 0.94,0.94 0 0 1 0.316,-0.255 c 0.151,-0.061 0.206,-0.054 0.44,0.057 0.367,0.174 0.763,0.555 0.763,0.734 0,0.174 -0.374,0.751 -0.614,0.95 -0.16,0.132 -0.17,0.157 -0.097,0.251 0.044,0.057 0.081,0.156 0.082,0.219 0.004,0.221 -0.603,1.032 -0.772,1.032 -0.037,0 -0.256,-0.122 -0.488,-0.271 z m 0.208,-1.62 c -0.018,-0.017 -0.064,0 -0.102,0.038 -0.056,0.055 -0.049,0.062 0.032,0.031 0.056,-0.021 0.088,-0.052 0.07,-0.07 z m -4.123,0.617 c -0.378,-0.192 -1.2,-0.785 -1.273,-0.918 -0.044,-0.08 0.058,-0.267 0.512,-0.938 0.577,-0.853 1.031,-1.698 1.264,-2.352 0.071,-0.2 0.158,-0.394 0.192,-0.43 0.047,-0.05 0.334,-0.054 1.182,-0.016 1.027,0.046 2.169,0.008 2.254,-0.075 0.019,-0.019 -0.029,-0.236 -0.108,-0.483 -0.109,-0.343 -0.128,-0.468 -0.079,-0.533 0.093,-0.122 1.807,-0.507 1.863,-0.418 0.11,0.175 0.197,0.816 0.197,1.451 -0.001,0.751 -0.068,1.122 -0.299,1.636 -0.126,0.282 -0.17,0.329 -0.358,0.378 -0.538,0.142 -1.514,0.236 -2.511,0.242 l -1.058,0.007 -0.162,0.393 a 25.51,25.51 0 0 1 -0.999,2.029 c -0.139,0.22 -0.228,0.224 -0.617,0.027 z m 11.399,-0.744 c -0.962,-0.168 -1.631,-0.818 -1.836,-1.786 -0.098,-0.464 -0.033,-1.49 0.137,-2.126 0.181,-0.681 0.486,-1.455 0.572,-1.454 0.037,0 0.401,0.108 0.809,0.24 l 0.741,0.239 -0.01,0.194 c -0.005,0.107 -0.078,0.433 -0.161,0.725 -0.246,0.863 -0.145,1.559 0.254,1.761 0.334,0.169 0.963,0.081 1.613,-0.226 0.254,-0.12 0.262,-0.153 0.063,-0.242 -0.31,-0.139 -0.736,-0.452 -0.832,-0.613 -0.138,-0.229 -0.124,-0.643 0.033,-1.017 0.354,-0.844 1.196,-1.635 2.227,-2.096 0.396,-0.176 1.165,-0.394 1.216,-0.344 0.068,0.066 0.135,1.225 0.093,1.6 l -0.047,0.418 -0.542,0.15 c -0.654,0.181 -0.913,0.272 -0.912,0.32 0,0.02 0.124,0.105 0.276,0.189 0.328,0.181 0.731,0.592 0.784,0.801 0.021,0.082 0.022,0.295 0.003,0.473 -0.128,1.197 -1.269,2.315 -2.739,2.684 -0.53,0.133 -1.322,0.183 -1.742,0.11 z M 7.435,75.467 6.209,75.345 5.704,75.275 5.715,74.911 c 0.01,-0.31 0.273,-1.723 0.332,-1.782 0.011,-0.011 0.323,0.027 0.694,0.083 0.516,0.079 1.002,0.103 2.071,0.104 1.532,10e-4 1.875,-0.051 2.273,-0.347 a 1.17,1.17 0 0 0 0.406,-0.729 c 0.001,-0.121 0.021,-0.126 0.508,-0.126 0.574,0 0.602,0.017 0.652,0.395 0.088,0.662 0.225,0.754 1.12,0.744 0.52,-0.005 0.827,-0.045 1.457,-0.187 l 0.847,-0.225 C 16.101,72.816 15.973,72.74 15.79,72.67 15.536,72.574 15.297,72.538 14.788,72.517 14.318,72.498 14.1,72.468 14.054,72.414 c -0.081,-0.096 0.068,-0.946 0.253,-1.446 0.111,-0.3 0.143,-0.338 0.323,-0.378 0.272,-0.061 0.81,-0.002 1.164,0.127 0.161,0.059 0.664,0.339 1.119,0.622 l 1.339,0.776 0.513,0.262 0.018,0.239 c 0.023,0.305 -0.123,1.015 -0.312,1.514 l -0.147,0.389 h -0.411 c -0.593,0 -0.951,0.079 -1.915,0.423 -1.177,0.42 -1.488,0.485 -2.367,0.492 -0.879,0.007 -1.194,-0.076 -1.591,-0.418 l -0.26,-0.224 -0.197,0.148 c -0.452,0.338 -1.261,0.514 -2.549,0.552 -0.483,0.015 -1.202,0.003 -1.599,-0.025 z m 12.318,0.005 C 19.667,75.42 19.661,75.299 19.69,74.254 l -0.038,-2.912 v -1.833 c 0.057,-0.067 0.236,-0.08 0.988,-0.067 l 0.919,0.015 0.037,0.531 c 0.067,0.945 0.123,4.323 0.08,4.77 -0.041,0.429 -0.045,0.436 -0.238,0.515 -0.39,0.16 -1.527,0.293 -1.685,0.198 z M 23.132,75.47 22.69,75.391 c -0.144,-0.054 -0.07,-0.822 0.161,-1.669 l 0.118,-0.434 0.872,0.014 0.911,-0.023 c 0.057,-0.055 -0.349,-0.788 -0.707,-1.276 -0.169,-0.231 -0.31,-0.45 -0.314,-0.486 -0.008,-0.091 1.454,-1.303 1.573,-1.304 0.119,-10e-4 0.239,0.164 0.578,0.782 0.722,1.315 0.944,2.816 0.574,3.881 -0.083,0.24 -0.11,0.263 -0.384,0.344 -0.747,0.219 -2.241,0.346 -2.942,0.25 z m 28.9,0.002 C 51.946,75.42 51.94,75.299 51.969,74.254 l -0.038,-2.912 v -1.833 c 0.057,-0.067 0.236,-0.08 0.988,-0.067 l 0.919,0.015 0.037,0.531 c 0.067,0.945 0.123,4.323 0.08,4.77 -0.041,0.429 -0.045,0.436 -0.238,0.515 -0.39,0.16 -1.527,0.293 -1.685,0.198 z M 46.339,75.41 C 46.072,75.382 45.684,75.309 45.476,75.248 45.165,75.156 45.091,75.111 45.062,74.997 45.015,74.814 44.93,72.96 44.883,71.093 l 0.032,-1.58 c 0.056,-0.067 0.246,-0.083 0.969,-0.083 h 0.899 l 0.034,0.154 c 0.019,0.085 0.051,0.934 0.072,1.888 l 0.101,1.775 c 0.085,0.056 0.387,0.052 0.48,-0.006 0.042,-0.026 0.1,-0.155 0.13,-0.287 0.192,-0.838 0.887,-1.573 1.609,-1.702 0.334,-0.059 0.793,0.058 1.087,0.279 0.189,0.141 0.315,0.308 0.473,0.621 0.199,0.394 0.217,0.473 0.236,0.993 0.024,0.663 -0.074,1.154 -0.331,1.654 -0.162,0.315 -0.189,0.339 -0.471,0.417 a 6.76,6.76 0 0 1 -0.744,0.141 c -0.619,0.081 -2.535,0.114 -3.119,0.053 z m 3.222,-2.232 c -0.16,-0.067 -0.642,-0.067 -0.684,0 -0.022,0.035 0.117,0.055 0.382,0.052 0.286,-0.003 0.381,-0.019 0.303,-0.052 z M 7.893,72.627 C 7.12,72.128 7.095,72.053 7.506,71.45 7.899,70.873 8.121,70.835 8.703,71.246 l 0.277,0.195 0.147,-0.189 c 0.081,-0.104 0.222,-0.219 0.313,-0.256 0.144,-0.059 0.203,-0.051 0.434,0.059 0.367,0.174 0.763,0.555 0.763,0.734 0,0.164 -0.362,0.729 -0.616,0.963 L 9.846,72.913 9.572,72.757 A 5.67,5.67 0 0 1 9.113,72.464 L 8.928,72.327 8.666,72.613 c -0.144,0.157 -0.282,0.286 -0.307,0.286 -0.025,0 -0.234,-0.122 -0.465,-0.272 z M 48.1,70.669 c -0.773,-0.499 -0.798,-0.574 -0.387,-1.177 0.393,-0.577 0.615,-0.615 1.197,-0.204 l 0.277,0.195 0.147,-0.189 c 0.081,-0.104 0.222,-0.219 0.313,-0.256 0.144,-0.059 0.203,-0.051 0.434,0.059 0.367,0.174 0.763,0.555 0.763,0.734 0,0.164 -0.362,0.729 -0.616,0.963 l -0.175,0.161 -0.274,-0.156 A 5.67,5.67 0 0 1 49.32,70.506 l -0.185,-0.137 -0.262,0.286 c -0.144,0.157 -0.282,0.286 -0.307,0.286 -0.025,0 -0.234,-0.122 -0.465,-0.272 z M 15.74,70.238 c -0.512,-0.303 -0.825,-0.574 -0.825,-0.714 0.001,-0.161 0.286,-0.644 0.531,-0.898 0.15,-0.156 0.24,-0.203 0.388,-0.202 0.387,10e-4 1.135,0.565 1.133,0.855 -10e-4,0.25 -0.656,1.159 -0.835,1.159 -0.03,0 -0.207,-0.09 -0.392,-0.199 z m 35.413,-1.007 c -0.207,-0.485 -0.17,-0.929 0.103,-1.233 0.356,-0.398 0.702,-0.468 1.497,-0.306 0.723,0.148 1.054,0.149 1.243,0.003 0.313,-0.241 0.568,-0.094 0.644,0.372 a 1,1 0 0 1 -0.243,0.806 c -0.302,0.352 -0.65,0.425 -1.437,0.302 -0.746,-0.116 -0.924,-0.099 -1.02,0.1 -0.068,0.14 -0.102,0.154 -0.388,0.154 -0.305,0 -0.316,-0.005 -0.398,-0.199 z M 30.712,62.074 v -0.308 h 0.342 0.342 v 0.308 0.308 h -0.342 -0.342 z m -3.831,-0.468 -0.014,-0.413 c -0.004,-0.117 0.029,-0.129 0.451,-0.17 0.567,-0.055 0.887,-0.222 1.071,-0.56 0.119,-0.218 0.13,-0.327 0.157,-1.466 l 0.029,-1.231 h 0.371 0.371 l 0.035,0.643 0.043,0.66 c 0.041,0.092 0.538,0.198 1.045,0.222 l 0.61,0.029 0.175,-0.171 C 31.397,58.981 31.4,58.968 31.4,58.414 V 57.85 h 0.314 0.314 v 0.645 c 0,1.176 -0.28,1.481 -1.363,1.481 -0.358,0 -0.584,0.023 -0.609,0.063 -0.038,0.061 -0.406,0.04 -0.603,-0.035 -0.07,-0.026 -0.102,0.032 -0.152,0.274 -0.2,0.978 -0.86,1.529 -1.9,1.587 l -0.506,0.028 z M 6.67,61.469 C 6.653,61.426 6.647,61.242 6.657,61.061 L 6.674,60.732 H 7.102 7.53 v 0.392 0.392 L 7.116,61.532 C 6.801,61.545 6.694,61.53 6.671,61.47 Z m 23.529,-0.346 v -0.308 h 0.342 0.342 v 0.308 0.308 h -0.342 -0.342 z m 0.97,0 v -0.308 h 0.371 0.371 v 0.308 0.308 H 31.54 31.169 Z M 5.533,60.003 A 1.13,1.13 0 0 1 4.882,59.323 C 4.845,59.191 4.821,58.396 4.821,57.255 l 0.081,-1.919 c 0.047,-0.038 0.21,-0.059 0.385,-0.049 l 0.304,0.017 0.029,1.818 0.1,1.941 c 0.091,0.156 0.413,0.207 1.098,0.175 0.713,-0.033 0.741,-0.064 0.741,-0.803 0,-0.681 0.021,-0.71 0.494,-0.686 l 0.333,0.017 0.018,0.559 c 0.034,1.028 -0.193,1.5 -0.805,1.678 -0.385,0.112 -1.742,0.112 -2.065,0 z m 6.587,0.018 c -0.286,-0.08 -0.552,-0.296 -0.697,-0.567 -0.11,-0.206 -0.126,-0.324 -0.128,-0.962 l -0.002,-0.727 h 0.399 0.399 l 0.029,0.634 c 0.032,0.716 0.058,0.761 0.482,0.823 0.131,0.019 0.82,0.027 1.53,0.016 1.137,-0.017 1.304,-0.03 1.391,-0.116 0.078,-0.077 0.106,-0.231 0.13,-0.727 l 0.031,-0.63 h 0.371 0.371 l 0.029,0.615 c 0.016,0.338 0.048,0.645 0.072,0.681 0.1,0.151 0.458,0.202 1.163,0.165 0.862,-0.045 1.183,-0.141 1.949,-0.581 l 0.589,-0.338 -0.171,-0.187 -0.171,-0.187 -1.027,-0.017 c -0.727,-0.012 -1.034,-0.037 -1.051,-0.084 -0.014,-0.037 -0.013,-0.224 0.002,-0.416 l 0.027,-0.35 h 1.005 c 0.553,0 1.108,0.028 1.234,0.062 0.44,0.118 0.875,0.701 1.022,1.371 l 0.038,0.174 -0.872,0.504 c -1.493,0.862 -1.556,0.881 -2.84,0.882 -0.916,0.001 -1.109,-0.04 -1.308,-0.275 -0.066,-0.078 -0.092,-0.072 -0.24,0.05 a 1.21,1.21 0 0 1 -0.378,0.195 c -0.271,0.074 -3.108,0.068 -3.377,-0.007 z m 10.021,0.031 c -0.022,-0.022 -0.04,-1.077 -0.04,-2.345 l 0.081,-2.371 c 0.047,-0.038 0.21,-0.059 0.385,-0.049 l 0.304,0.017 v 2.377 2.377 l -0.345,0.016 c -0.189,0.009 -0.363,-0.002 -0.385,-0.023 z m 1.766,-0.333 c -0.02,-0.206 -0.022,-0.397 -0.005,-0.423 0.017,-0.026 0.502,-0.048 1.078,-0.048 1.051,0 1.315,-0.037 1.377,-0.195 0.068,-0.175 -0.054,-0.357 -0.777,-1.166 l -0.743,-0.829 0.272,-0.245 c 0.149,-0.135 0.31,-0.246 0.357,-0.246 0.116,-10e-4 1.473,1.548 1.668,1.904 0.316,0.576 0.147,1.193 -0.398,1.457 -0.256,0.124 -0.344,0.132 -1.532,0.149 l -1.26,0.018 z m 11.881,0.302 c -0.286,-0.08 -0.552,-0.296 -0.697,-0.567 -0.11,-0.206 -0.126,-0.324 -0.128,-0.962 l -0.002,-0.727 h 0.399 0.399 l 0.029,0.634 c 0.032,0.716 0.058,0.761 0.482,0.823 0.131,0.019 0.82,0.027 1.53,0.016 1.137,-0.017 1.304,-0.03 1.391,-0.116 0.078,-0.077 0.106,-0.231 0.13,-0.727 l 0.031,-0.63 h 0.371 0.371 l 0.029,0.634 c 0.024,0.542 0.044,0.645 0.138,0.713 0.166,0.119 0.435,0.151 1.057,0.127 0.779,-0.031 0.801,-0.053 0.801,-0.804 0,-0.681 0.021,-0.71 0.494,-0.686 l 0.333,0.017 0.018,0.559 c 0.024,0.738 -0.058,1.097 -0.316,1.377 -0.302,0.328 -0.631,0.403 -1.634,0.375 -0.821,-0.023 -1.047,-0.077 -1.23,-0.293 -0.066,-0.078 -0.092,-0.072 -0.24,0.05 a 1.21,1.21 0 0 1 -0.378,0.195 c -0.271,0.074 -3.108,0.068 -3.377,-0.007 z m 8.925,-0.018 a 1.13,1.13 0 0 1 -0.651,-0.68 c -0.037,-0.132 -0.061,-0.927 -0.061,-2.068 l 0.081,-1.919 c 0.047,-0.038 0.21,-0.059 0.385,-0.049 l 0.304,0.017 0.029,1.818 0.1,1.941 c 0.084,0.145 0.455,0.217 0.827,0.162 0.388,-0.058 0.407,-0.085 0.447,-0.631 0.067,-0.923 0.526,-1.416 1.32,-1.415 0.409,0 0.661,0.078 0.909,0.278 0.28,0.227 0.435,0.563 0.477,1.036 0.053,0.606 0.062,0.627 0.292,0.702 0.284,0.092 0.97,0.041 1.095,-0.081 0.073,-0.072 0.101,-0.237 0.123,-0.72 l 0.029,-0.628 0.333,-0.017 c 0.474,-0.024 0.494,0.005 0.494,0.694 0,0.558 0.005,0.583 0.144,0.672 0.079,0.051 0.151,0.083 0.16,0.071 l 0.448,-0.665 c 0.691,-1.029 1.209,-1.419 1.876,-1.413 1.227,0.011 1.837,1.679 0.938,2.562 -0.377,0.37 -0.612,0.418 -2.04,0.418 -1.284,0 -1.608,-0.045 -1.843,-0.259 l -0.148,-0.135 -0.168,0.139 c -0.221,0.182 -0.503,0.255 -0.992,0.255 -0.511,0 -0.782,-0.075 -0.984,-0.274 l -0.162,-0.159 -0.178,0.156 c -0.381,0.334 -1.163,0.346 -1.592,0.024 l -0.185,-0.139 -0.154,0.14 c -0.085,0.077 -0.246,0.165 -0.36,0.196 -0.296,0.081 -1.023,0.065 -1.29,-0.027 z m 3.008,-0.814 c 0.265,-0.072 0.329,-0.185 0.329,-0.583 0,-0.259 -0.025,-0.338 -0.14,-0.451 -0.207,-0.203 -0.555,-0.191 -0.777,0.026 -0.139,0.137 -0.167,0.209 -0.167,0.44 0,0.31 0.144,0.547 0.358,0.588 l 0.156,0.031 c 0.016,0.004 0.124,-0.019 0.242,-0.051 z m 6.272,0 c 0.117,-0.032 0.251,-0.113 0.299,-0.18 0.182,-0.255 0.064,-0.855 -0.195,-0.991 -0.226,-0.119 -0.551,-0.068 -0.811,0.127 -0.228,0.17 -0.846,0.939 -0.846,1.053 0,0.069 1.293,0.062 1.552,-0.009 z M 12.987,57.278 c -0.097,-0.095 -0.088,-0.63 0.012,-0.712 0.048,-0.039 0.225,-0.059 0.442,-0.049 l 0.361,0.017 0.017,0.326 c 0.01,0.192 -0.01,0.359 -0.05,0.406 -0.084,0.099 -0.685,0.108 -0.783,0.012 z m 0.982,-0.009 c -0.016,-0.042 -0.022,-0.224 -0.012,-0.406 l 0.017,-0.329 0.361,-0.017 c 0.217,-0.01 0.394,0.009 0.442,0.049 0.1,0.081 0.109,0.617 0.012,0.712 -0.097,0.095 -0.782,0.089 -0.82,-0.009 z m 22.686,0.009 c -0.097,-0.095 -0.088,-0.63 0.012,-0.712 0.048,-0.039 0.225,-0.059 0.442,-0.049 l 0.361,0.017 0.017,0.326 c 0.01,0.192 -0.01,0.359 -0.05,0.406 -0.084,0.099 -0.685,0.108 -0.783,0.012 z m 0.982,-0.009 c -0.016,-0.042 -0.022,-0.224 -0.012,-0.406 l 0.017,-0.329 0.361,-0.017 c 0.217,-0.01 0.394,0.009 0.442,0.049 0.1,0.081 0.109,0.617 0.012,0.712 -0.097,0.095 -0.782,0.089 -0.82,-0.009 z m 4.221,-0.277 c -0.017,-0.043 -0.023,-0.227 -0.013,-0.408 l 0.017,-0.329 h 0.428 0.428 v 0.392 0.392 l -0.414,0.016 c -0.315,0.013 -0.422,-0.002 -0.445,-0.062 z M 53.093,56.433 C 53.076,56.39 53.07,56.206 53.08,56.025 l 0.017,-0.329 h 0.428 0.428 v 0.392 0.392 l -0.414,0.016 c -0.315,0.013 -0.422,-0.002 -0.445,-0.062 z M 18.704,56.377 C 18.687,56.334 18.681,56.15 18.691,55.969 l 0.017,-0.329 h 0.428 0.428 v 0.392 0.392 L 19.15,56.44 c -0.315,0.013 -0.422,-0.002 -0.445,-0.062 z"
       id="path4"
       style="display:inline;opacity:1" />
  </g>
  <path
     d="m 22.66,48.656 c -0.571,0.008 -0.984,-0.005 -1.3,-0.04 l -0.873,-0.125 -0.766,-0.162 -0.659,-0.18 C 18.895,48.099 18.535,47.97 18.261,47.863 L 17.28,47.426 16.514,47.015 15.875,46.603 15.13,46.052 a 13.95,13.95 0 0 1 -0.85,-0.759 l -0.792,-0.841 -0.622,-0.8 -0.52,-0.792 -0.445,-0.816 -0.371,-0.81 -0.285,-0.768 -0.251,-0.873 -0.193,-0.91 L 9.676,29.315 8.572,19.876 C 8.544,19.602 8.52,19.111 8.52,18.786 L 8.573,17.654 8.697,16.706 8.876,15.864 9.094,15.088 9.363,14.337 C 9.451,14.112 9.658,13.663 9.821,13.34 l 0.53,-0.957 0.496,-0.73 0.601,-0.752 0.743,-0.784 0.797,-0.707 C 13.203,9.237 13.62,8.935 13.914,8.74 a 13.5,13.5 0 0 1 1.193,-0.684 l 1.122,-0.5 0.89,-0.293 0.944,-0.227 c 0.35,-0.07 3.495,-0.456 9.759,-1.195 l 9.973,-1.11 c 0.544,-0.014 0.88,-0.003 1.318,0.042 a 16.54,16.54 0 0 1 0.98,0.131 l 0.748,0.16 c 0,0 0.492,0.13 0.659,0.18 0.167,0.05 0.527,0.179 0.801,0.287 a 14.69,14.69 0 0 1 0.989,0.441 l 0.766,0.411 a 17.16,17.16 0 0 1 0.632,0.408 l 0.745,0.551 a 13.95,13.95 0 0 1 0.85,0.759 l 0.792,0.841 c 0,0 0.462,0.576 0.622,0.8 0.16,0.224 0.395,0.581 0.52,0.792 a 15.88,15.88 0 0 1 0.445,0.816 l 0.371,0.81 a 15.09,15.09 0 0 1 0.285,0.768 l 0.251,0.873 c 0,0 0.153,0.675 0.193,0.91 0.04,0.235 0.545,4.451 1.125,9.368 l 1.104,9.439 a 13.15,13.15 0 0 1 0.052,1.09 13.59,13.59 0 0 1 -0.053,1.132 l -0.124,0.948 a 13.4,13.4 0 0 1 -0.179,0.842 16.23,16.23 0 0 1 -0.218,0.776 14.8,14.8 0 0 1 -0.269,0.751 l -0.409,0.908 a 15.52,15.52 0 0 1 -0.478,0.881 l -0.522,0.79 a 14.89,14.89 0 0 1 -0.626,0.802 c -0.184,0.217 -0.528,0.582 -0.766,0.813 -0.238,0.231 -0.608,0.561 -0.823,0.734 -0.215,0.173 -0.632,0.475 -0.926,0.67 a 13.5,13.5 0 0 1 -1.193,0.684 13.79,13.79 0 0 1 -1.122,0.5 l -0.89,0.293 a 14.45,14.45 0 0 1 -0.944,0.227 c -0.35,0.07 -3.5,0.456 -9.759,1.196 l -9.243,1.092 z m -8.764,-12.487 1.596,-0.045 c 0.019,-0.024 0.47,-1.192 1.002,-2.595 l 0.967,-2.587 c 0,-0.024 -0.267,-0.043 -0.757,-0.055 l -1.06,-0.075 a 7.73,7.73 0 0 1 -0.707,-0.185 l -0.421,-0.11 c 0,0 -0.51,1.273 -1.113,2.807 l -1.081,2.817 c 0.008,0.015 0.717,0.027 1.575,0.027 z M 36.844,36.168 47.28,36.129 a 1.76,1.76 0 0 0 0.354,-0.123 c 0.091,-0.046 0.216,-0.134 0.278,-0.196 a 1.31,1.31 0 0 0 0.197,-0.279 c 0.046,-0.091 0.102,-0.262 0.125,-0.379 0.03,-0.156 0.038,-2.422 0.03,-8.547 L 48.253,18.27 48.172,18.069 A 1.53,1.53 0 0 0 47.948,17.705 C 47.863,17.608 47.716,17.499 47.584,17.434 47.463,17.375 47.277,17.31 47.171,17.29 47.045,17.266 42.331,17.254 33.346,17.254 H 19.712 l -0.096,0.24 -1.913,4.871 -2.062,5.256 c -0.135,0.344 -0.246,0.645 -0.246,0.668 0,0.023 0.008,0.042 0.019,0.042 0.011,0 0.111,-0.046 0.223,-0.103 0.112,-0.057 0.544,-0.327 0.959,-0.601 a 17.18,17.18 0 0 1 1.071,-0.661 c 0.173,-0.09 0.443,-0.205 0.598,-0.256 a 4.22,4.22 0 0 1 0.585,-0.137 l 0.302,-0.044 0.973,-2.563 1.007,-2.597 c 0.022,-0.022 0.047,-0.022 0.068,0 0.021,0.022 0.428,1.138 0.91,2.488 l 0.924,2.569 c 0.044,0.106 0.067,0.118 0.292,0.157 0.134,0.023 0.364,0.082 0.51,0.131 a 5.09,5.09 0 0 1 0.585,0.254 c 0.176,0.091 0.652,0.385 1.059,0.655 0.407,0.27 0.852,0.547 0.99,0.616 a 1.46,1.46 0 0 0 0.305,0.126 c 0.03,0 0.054,-0.008 0.054,-0.017 a 7.36,7.36 0 0 0 -0.146,-0.383 c -0.08,-0.201 -0.191,-0.495 -0.245,-0.651 -0.054,-0.156 -0.229,-0.634 -0.388,-1.06 -0.159,-0.426 -0.289,-0.799 -0.289,-0.828 0,-0.046 1.258,-0.053 10.503,-0.053 l 10.552,0.059 c 0.041,0.049 0.05,0.819 0.058,4.633 l 0.009,4.574 -0.105,0.105 -0.105,0.105 h -8.669 c -6.881,0 -8.681,-0.009 -8.726,-0.045 -0.031,-0.024 -0.203,-0.441 -0.383,-0.926 -0.18,-0.485 -0.316,-0.898 -0.304,-0.917 0.012,-0.019 1.263,-0.035 3.594,-0.035 h 3.572 l 0.121,-0.081 a 0.46,0.46 0 0 0 0.172,-0.227 c 0.043,-0.123 0.043,-0.164 0.003,-0.261 -0.026,-0.064 -0.097,-0.146 -0.158,-0.183 -0.105,-0.064 -0.254,-0.067 -3.875,-0.067 -3.627,0 -3.767,-0.002 -3.801,-0.066 -0.019,-0.036 -0.156,-0.389 -0.304,-0.785 -0.148,-0.396 -0.269,-0.742 -0.269,-0.771 0,-0.046 0.286,-0.052 2.182,-0.053 1.674,0 2.202,-0.011 2.27,-0.045 0.048,-0.024 0.125,-0.099 0.169,-0.165 a 0.48,0.48 0 0 0 0.081,-0.213 c 0,-0.051 -0.031,-0.144 -0.07,-0.207 -0.049,-0.08 -0.113,-0.126 -0.215,-0.153 -0.102,-0.027 -0.673,-0.036 -1.78,-0.029 l -1.635,0.011 -0.189,0.2 a 2.62,2.62 0 0 1 -0.349,0.307 4.68,4.68 0 0 1 -0.41,0.233 4.87,4.87 0 0 1 -0.516,0.216 6.3,6.3 0 0 1 -0.626,0.163 8.75,8.75 0 0 1 -0.801,0.112 5.67,5.67 0 0 1 -0.754,0.015 c -0.271,-0.021 -0.312,-0.017 -0.312,0.032 0,0.031 0.351,1.023 0.78,2.203 l 0.915,2.574 c 0.075,0.235 0.152,0.439 0.173,0.454 0.021,0.015 4.649,0.026 10.285,0.027 z M 35.619,22.135 H 24.511 l -0.038,-0.098 -0.64,-1.704 -0.603,-1.665 c 0,-0.055 0.8,-0.059 11.747,-0.059 l 11.816,0.051 c 0.067,0.049 0.069,0.108 0.069,1.688 0,1.56 -0.003,1.641 -0.068,1.713 l -0.068,0.075 z m 7.496,11.147 c 1.576,0.001 1.973,-0.008 2.066,-0.047 0.063,-0.027 0.155,-0.092 0.204,-0.145 l 0.089,-0.096 0.009,-1.912 c 0.009,-1.847 0.007,-1.916 -0.061,-2.026 -0.039,-0.063 -0.119,-0.139 -0.178,-0.17 -0.095,-0.049 -0.351,-0.055 -2.159,-0.046 l -2.051,0.01 -0.122,0.133 -0.122,0.133 v 1.915 c 0,1.857 0.002,1.919 0.072,2.033 a 0.49,0.49 0 0 0 0.187,0.168 c 0.094,0.041 0.472,0.05 2.066,0.051 z M 16.943,30.667 c 0.63,-0.012 0.816,-0.028 1.178,-0.105 0.236,-0.05 0.597,-0.149 0.801,-0.22 0.204,-0.071 0.501,-0.189 0.659,-0.263 0.158,-0.074 0.399,-0.199 0.536,-0.279 0.137,-0.08 0.395,-0.25 0.575,-0.379 0.18,-0.129 0.336,-0.234 0.348,-0.234 0.012,0 0.168,0.105 0.348,0.234 0.18,0.129 0.438,0.299 0.574,0.379 0.136,0.08 0.38,0.206 0.543,0.281 0.163,0.075 0.459,0.193 0.66,0.263 0.201,0.07 0.566,0.17 0.812,0.223 0.412,0.088 0.514,0.096 1.284,0.097 0.673,10e-4 0.9,-0.012 1.156,-0.064 0.176,-0.036 0.472,-0.114 0.659,-0.173 a 4.69,4.69 0 0 0 0.607,-0.246 c 0.147,-0.076 0.357,-0.209 0.466,-0.295 a 1.95,1.95 0 0 0 0.345,-0.375 2.65,2.65 0 0 0 0.225,-0.422 c 0.053,-0.136 0.084,-0.312 0.095,-0.529 0.012,-0.24 0.001,-0.379 -0.044,-0.534 A 2.32,2.32 0 0 0 28.616,27.644 C 28.565,27.549 28.431,27.386 28.318,27.282 28.186,27.16 28.039,27.064 27.907,27.015 27.794,26.973 27.625,26.929 27.533,26.918 a 1.01,1.01 0 0 0 -0.339,0.028 c -0.118,0.033 -0.221,0.099 -0.339,0.217 -0.094,0.094 -0.169,0.202 -0.169,0.244 0,0.069 0.011,0.065 0.146,-0.043 0.135,-0.108 0.168,-0.117 0.386,-0.117 0.196,0 0.263,0.016 0.367,0.088 0.07,0.048 0.169,0.151 0.219,0.228 a 0.89,0.89 0 0 1 0.114,0.294 1.05,1.05 0 0 1 -0.021,0.338 c -0.031,0.13 -0.084,0.224 -0.18,0.32 -0.076,0.076 -0.197,0.152 -0.275,0.173 -0.098,0.026 -0.201,0.026 -0.348,-10e-4 -0.115,-0.021 -0.31,-0.077 -0.433,-0.123 -0.123,-0.046 -0.34,-0.152 -0.482,-0.235 -0.142,-0.083 -0.551,-0.347 -0.908,-0.586 -0.357,-0.239 -0.817,-0.518 -1.021,-0.618 a 4.59,4.59 0 0 0 -0.722,-0.273 c -0.313,-0.081 -0.399,-0.089 -0.813,-0.073 a 3.83,3.83 0 0 0 -0.677,0.076 3.27,3.27 0 0 0 -0.408,0.147 c -0.107,0.049 -0.281,0.155 -0.386,0.237 -0.135,0.104 -0.205,0.138 -0.238,0.114 l -0.265,-0.182 c -0.12,-0.082 -0.309,-0.184 -0.422,-0.226 a 3.48,3.48 0 0 0 -0.466,-0.127 c -0.144,-0.028 -0.418,-0.05 -0.61,-0.05 -0.253,0 -0.443,0.024 -0.694,0.088 -0.195,0.049 -0.508,0.167 -0.717,0.27 -0.204,0.1 -0.664,0.378 -1.021,0.618 -0.357,0.24 -0.766,0.504 -0.908,0.586 -0.142,0.082 -0.359,0.189 -0.482,0.235 -0.123,0.046 -0.318,0.102 -0.433,0.123 -0.147,0.027 -0.25,0.028 -0.348,0.001 -0.078,-0.021 -0.198,-0.097 -0.275,-0.173 -0.096,-0.096 -0.149,-0.19 -0.18,-0.32 a 1.05,1.05 0 0 1 -0.021,-0.338 0.89,0.89 0 0 1 0.114,-0.294 c 0.05,-0.077 0.148,-0.179 0.219,-0.228 0.105,-0.072 0.171,-0.088 0.367,-0.088 0.217,0 0.253,0.011 0.386,0.117 0.126,0.102 0.146,0.108 0.146,0.05 0,-0.037 -0.064,-0.141 -0.143,-0.231 a 0.7,0.7 0 0 0 -0.325,-0.223 c -0.122,-0.041 -0.243,-0.054 -0.364,-0.041 -0.1,0.011 -0.274,0.054 -0.387,0.096 -0.125,0.047 -0.281,0.147 -0.402,0.257 -0.109,0.099 -0.239,0.251 -0.289,0.337 -0.05,0.086 -0.122,0.254 -0.159,0.372 -0.041,0.133 -0.067,0.321 -0.067,0.491 a 2.04,2.04 0 0 0 0.057,0.469 c 0.031,0.106 0.107,0.288 0.168,0.403 0.061,0.115 0.201,0.299 0.312,0.41 a 2.62,2.62 0 0 0 0.429,0.335 c 0.125,0.074 0.356,0.184 0.513,0.244 0.157,0.06 0.405,0.14 0.552,0.178 a 8.42,8.42 0 0 0 0.588,0.12 c 0.233,0.038 0.525,0.048 1.069,0.038 z m 17.784,-0.236 c 1.089,0.002 1.309,-0.006 1.397,-0.052 0.057,-0.03 0.129,-0.101 0.159,-0.159 0.03,-0.058 0.054,-0.159 0.054,-0.226 0,-0.067 -0.032,-0.162 -0.073,-0.214 a 0.46,0.46 0 0 0 -0.205,-0.129 c -0.078,-0.022 -0.611,-0.037 -1.307,-0.037 -0.674,0 -1.23,0.015 -1.304,0.036 -0.074,0.021 -0.156,0.066 -0.19,0.104 a 0.49,0.49 0 0 0 -0.082,0.219 c -0.014,0.106 -0.002,0.184 0.042,0.266 a 0.41,0.41 0 0 0 0.139,0.153 c 0.048,0.023 0.552,0.038 1.37,0.039 z"
     fill="#37255f"
     id="path20"
     style="display:none" />
  <path
     d="m 22.447,48.63 -0.695,-0.018 -0.606,-0.066 -0.98,-0.16 -0.997,-0.251 -0.855,-0.29 -0.841,-0.367 -0.819,-0.428 -0.719,-0.452 -0.748,-0.552 -0.725,-0.623 A 12,12 0 0 1 13.775,44.72 L 13.197,44.036 12.669,43.293 12.141,42.42 11.695,41.512 11.323,40.566 11.037,39.604 10.837,38.645 9.671,28.957 8.58,19.732 8.577,18.806 8.638,17.381 8.81,16.35 9.042,15.406 9.295,14.638 9.63,13.823 l 0.425,-0.855 0.477,-0.788 0.525,-0.74 0.645,-0.767 c 0.208,-0.231 0.552,-0.574 0.764,-0.764 l 0.686,-0.582 0.658,-0.476 0.671,-0.424 0.623,-0.34 0.649,-0.299 0.64,-0.254 0.728,-0.232 0.962,-0.23 C 18.453,6.998 21.411,6.636 27.7,5.896 l 9.528,-1.11 C 37.49,4.762 37.945,4.754 38.332,4.765 l 1.104,0.077 0.962,0.162 0.997,0.251 0.855,0.29 0.841,0.367 0.819,0.428 0.719,0.452 0.748,0.552 0.725,0.623 a 12,12 0 0 1 0.687,0.703 l 0.578,0.684 0.528,0.743 0.528,0.873 0.446,0.908 0.372,0.946 0.286,0.962 0.2,0.959 1.166,9.688 1.091,9.225 0.003,0.926 -0.061,1.425 -0.172,1.031 -0.232,0.944 -0.253,0.768 -0.335,0.815 -0.424,0.855 -0.514,0.841 -0.534,0.748 -0.608,0.714 c -0.204,0.226 -0.544,0.566 -0.756,0.756 l -0.686,0.582 -0.658,0.476 -0.671,0.424 -0.623,0.34 -0.649,0.299 -0.64,0.254 -0.728,0.232 -0.962,0.23 c -0.37,0.074 -3.32,0.435 -9.617,1.176 L 23.389,48.6 c -0.215,0.02 -0.64,0.034 -0.944,0.031 z m -8.573,-12.425 1.618,-0.028 c 0.024,-0.015 0.484,-1.188 1.023,-2.606 l 0.989,-2.652 c 0.01,-0.072 -0.001,-0.073 -0.542,-0.062 -0.304,0.006 -0.696,-0.006 -0.873,-0.029 l -0.588,-0.094 c -0.147,-0.03 -0.424,-0.107 -0.616,-0.172 l -0.349,-0.118 -0.049,0.076 c -0.027,0.042 -0.539,1.324 -1.137,2.85 l -1.069,2.805 c 0.011,0.017 0.728,0.031 1.593,0.031 z m 23.048,-0.008 10.547,-0.076 c 0.098,-0.037 0.246,-0.113 0.328,-0.17 0.082,-0.057 0.198,-0.172 0.255,-0.256 a 1.68,1.68 0 0 0 0.17,-0.346 c 0.063,-0.186 0.065,-0.546 0.065,-8.635 V 18.272 L 48.205,18.069 C 48.16,17.957 48.049,17.784 47.96,17.684 A 1.42,1.42 0 0 0 47.624,17.415 C 47.529,17.367 47.36,17.304 47.248,17.274 47.069,17.227 45.377,17.221 33.378,17.221 l -13.7,0.045 c -0.019,0.024 -0.872,2.184 -1.897,4.8 l -2.167,5.53 c -0.167,0.426 -0.293,0.786 -0.279,0.8 0.014,0.014 0.148,-0.037 0.299,-0.111 a 13.75,13.75 0 0 0 0.987,-0.609 c 0.392,-0.26 0.849,-0.545 1.015,-0.634 0.166,-0.089 0.441,-0.21 0.61,-0.268 0.169,-0.058 0.437,-0.126 0.596,-0.149 0.159,-0.023 0.304,-0.061 0.323,-0.083 0.019,-0.022 0.466,-1.179 0.994,-2.57 l 1.004,-2.528 c 0.027,0 0.405,1.008 0.943,2.511 l 0.926,2.574 c 0.015,0.034 0.062,0.069 0.103,0.077 a 19.47,19.47 0 0 1 0.361,0.076 3.85,3.85 0 0 1 0.559,0.178 c 0.151,0.064 0.381,0.175 0.511,0.248 0.13,0.073 0.55,0.341 0.933,0.595 0.383,0.254 0.825,0.526 0.983,0.602 0.158,0.076 0.308,0.139 0.334,0.139 0.026,0 0.046,-0.023 0.046,-0.052 0,-0.029 -0.066,-0.217 -0.146,-0.419 A 19.03,19.03 0 0 1 26.453,27.268 C 26.389,27.082 26.214,26.605 26.065,26.207 L 25.793,25.45 c 0,-0.022 3.723,-0.035 10.47,-0.035 h 10.47 l 0.055,0.079 c 0.049,0.071 0.055,0.567 0.055,4.614 v 4.535 l -0.087,0.087 -0.087,0.087 H 38 c -7.202,0 -8.677,-0.008 -8.71,-0.048 -0.022,-0.026 -0.183,-0.43 -0.359,-0.897 -0.176,-0.467 -0.311,-0.862 -0.301,-0.878 0.01,-0.016 1.616,-0.03 3.569,-0.03 3.48,0 3.553,-0.002 3.667,-0.071 a 0.69,0.69 0 0 0 0.189,-0.187 0.35,0.35 0 0 0 0.056,-0.255 C 36.1,32.358 36.057,32.275 35.984,32.202 l -0.11,-0.11 -3.807,-0.009 c -3.576,-0.009 -3.808,-0.013 -3.831,-0.071 -0.014,-0.034 -0.143,-0.38 -0.288,-0.77 -0.145,-0.39 -0.255,-0.722 -0.244,-0.739 0.011,-0.017 0.99,-0.031 2.177,-0.031 2.101,0 2.161,-0.002 2.274,-0.072 A 0.54,0.54 0 0 0 32.328,30.208 0.61,0.61 0 0 0 32.385,30 c 0,-0.048 -0.037,-0.142 -0.081,-0.208 -0.052,-0.077 -0.133,-0.138 -0.222,-0.167 -0.11,-0.036 -0.51,-0.044 -1.81,-0.036 l -1.67,0.011 -0.129,0.143 a 3.02,3.02 0 0 1 -0.29,0.272 3.23,3.23 0 0 1 -0.392,0.255 4.8,4.8 0 0 1 -0.53,0.236 6.54,6.54 0 0 1 -0.748,0.203 c -0.389,0.081 -0.543,0.094 -1.145,0.097 -0.382,0.002 -0.705,0.018 -0.717,0.035 -0.012,0.017 -0.01,0.073 0.005,0.125 a 244.29,244.29 0 0 0 0.794,2.195 l 0.901,2.529 c 0.074,0.235 0.15,0.448 0.169,0.472 0.027,0.036 2.104,0.043 10.403,0.036 z M 35.64,22.1 c -10.92,0 -11.09,-0.001 -11.126,-0.069 -0.02,-0.038 -0.309,-0.799 -0.642,-1.691 l -0.606,-1.659 c 0,-0.025 3.756,-0.036 11.735,-0.036 h 11.735 l 0.055,0.084 c 0.048,0.074 0.054,0.285 0.045,1.669 -0.008,1.279 -0.019,1.596 -0.059,1.643 -0.045,0.055 -0.869,0.059 -11.138,0.059 z m 7.484,11.22 h 1.96 l 0.156,-0.08 c 0.097,-0.05 0.181,-0.127 0.221,-0.204 0.06,-0.116 0.065,-0.253 0.065,-1.995 0,-1.804 -0.003,-1.875 -0.071,-1.987 a 0.67,0.67 0 0 0 -0.187,-0.187 c -0.112,-0.068 -0.183,-0.071 -2.123,-0.071 -1.77,0 -2.021,0.007 -2.128,0.057 a 0.54,0.54 0 0 0 -0.192,0.173 c -0.07,0.113 -0.072,0.173 -0.072,2.021 v 1.905 l 0.081,0.121 a 0.64,0.64 0 0 0 0.205,0.183 c 0.114,0.057 0.289,0.062 2.084,0.062 z M 25.46,30.734 c 0.276,-0.008 0.645,-0.039 0.819,-0.069 a 7.68,7.68 0 0 0 0.584,-0.127 c 0.147,-0.04 0.386,-0.12 0.533,-0.179 0.147,-0.059 0.363,-0.165 0.481,-0.237 0.118,-0.072 0.301,-0.21 0.405,-0.308 a 2.03,2.03 0 0 0 0.316,-0.405 2.81,2.81 0 0 0 0.193,-0.441 1.79,1.79 0 0 0 0.067,-0.492 c 0,-0.176 -0.026,-0.361 -0.07,-0.504 a 1.96,1.96 0 0 0 -0.174,-0.39 c -0.057,-0.09 -0.174,-0.231 -0.26,-0.313 -0.086,-0.082 -0.238,-0.19 -0.339,-0.239 -0.101,-0.049 -0.285,-0.107 -0.41,-0.128 -0.187,-0.032 -0.26,-0.028 -0.427,0.021 a 0.66,0.66 0 0 0 -0.365,0.241 c -0.098,0.109 -0.164,0.216 -0.164,0.267 0,0.051 0.009,0.085 0.02,0.085 A 0.94,0.94 0 0 0 26.833,27.4 c 0.131,-0.105 0.166,-0.116 0.386,-0.116 0.22,0 0.256,0.011 0.379,0.111 0.075,0.061 0.169,0.165 0.208,0.232 0.051,0.087 0.071,0.186 0.071,0.352 0,0.157 -0.022,0.276 -0.068,0.368 -0.037,0.075 -0.132,0.179 -0.21,0.231 -0.116,0.077 -0.18,0.093 -0.349,0.089 -0.114,-0.003 -0.292,-0.032 -0.395,-0.066 a 4.32,4.32 0 0 1 -0.467,-0.2 14.96,14.96 0 0 1 -1.033,-0.64 C 24.94,27.485 24.44,27.181 24.243,27.085 a 4.58,4.58 0 0 0 -0.712,-0.267 c -0.32,-0.083 -0.401,-0.09 -0.818,-0.074 -0.317,0.012 -0.546,0.042 -0.725,0.093 -0.144,0.041 -0.328,0.108 -0.41,0.149 -0.082,0.041 -0.231,0.136 -0.333,0.213 -0.102,0.077 -0.194,0.138 -0.204,0.138 -0.01,0 -0.094,-0.057 -0.185,-0.127 -0.091,-0.07 -0.242,-0.166 -0.336,-0.213 -0.094,-0.047 -0.287,-0.119 -0.431,-0.161 -0.179,-0.051 -0.408,-0.081 -0.724,-0.093 -0.417,-0.016 -0.498,-0.009 -0.818,0.074 -0.195,0.051 -0.516,0.17 -0.712,0.266 -0.196,0.096 -0.694,0.399 -1.105,0.673 -0.411,0.274 -0.876,0.562 -1.033,0.64 -0.157,0.078 -0.37,0.17 -0.474,0.203 -0.104,0.033 -0.282,0.063 -0.395,0.066 -0.169,0.004 -0.233,-0.013 -0.349,-0.089 -0.078,-0.052 -0.173,-0.156 -0.21,-0.231 -0.046,-0.092 -0.068,-0.212 -0.068,-0.368 0,-0.167 0.02,-0.265 0.071,-0.352 0.039,-0.066 0.133,-0.171 0.208,-0.232 0.123,-0.1 0.161,-0.111 0.379,-0.111 0.218,0 0.256,0.011 0.386,0.116 a 0.94,0.94 0 0 0 0.164,0.116 c 0.011,0 0.02,-0.038 0.02,-0.085 0,-0.047 -0.066,-0.158 -0.164,-0.267 A 0.66,0.66 0 0 0 14.9,26.921 c -0.167,-0.049 -0.24,-0.052 -0.427,-0.021 -0.124,0.021 -0.309,0.079 -0.41,0.128 a 1.58,1.58 0 0 0 -0.34,0.243 c -0.086,0.084 -0.203,0.225 -0.259,0.313 a 1.96,1.96 0 0 0 -0.177,0.403 c -0.06,0.195 -0.071,0.306 -0.057,0.57 0.011,0.221 0.043,0.394 0.097,0.535 0.044,0.114 0.148,0.307 0.23,0.427 0.082,0.12 0.243,0.295 0.357,0.387 a 3.24,3.24 0 0 0 0.443,0.29 c 0.13,0.068 0.375,0.172 0.546,0.232 0.171,0.06 0.483,0.143 0.695,0.186 0.266,0.053 0.574,0.083 0.999,0.095 0.376,0.011 0.748,0.002 0.962,-0.025 a 9.07,9.07 0 0 0 0.659,-0.11 c 0.171,-0.037 0.483,-0.125 0.695,-0.195 a 7.9,7.9 0 0 0 0.776,-0.318 7.69,7.69 0 0 0 0.766,-0.441 c 0.206,-0.138 0.414,-0.284 0.463,-0.324 0.049,-0.04 0.105,-0.073 0.125,-0.073 0.02,0 0.076,0.033 0.125,0.073 0.049,0.04 0.257,0.186 0.463,0.324 0.206,0.138 0.55,0.336 0.766,0.439 0.216,0.103 0.512,0.231 0.659,0.284 0.147,0.053 0.419,0.133 0.606,0.18 0.187,0.047 0.499,0.109 0.695,0.139 l 0.481,0.07 a 7.22,7.22 0 0 0 0.627,0.001 z m 9.279,-0.266 c 1.299,0.001 1.304,0.001 1.424,-0.08 0.066,-0.045 0.141,-0.121 0.165,-0.169 a 0.54,0.54 0 0 0 0.045,-0.202 c 0,-0.063 -0.018,-0.155 -0.041,-0.204 -0.023,-0.049 -0.083,-0.118 -0.134,-0.153 -0.083,-0.056 -0.217,-0.064 -1.303,-0.074 -0.666,-0.006 -1.282,-10e-4 -1.369,0.012 -0.112,0.017 -0.192,0.057 -0.276,0.141 -0.096,0.096 -0.118,0.146 -0.118,0.266 0,0.081 0.024,0.195 0.054,0.252 0.03,0.057 0.098,0.128 0.151,0.157 0.081,0.044 0.318,0.053 1.401,0.054 z"
     fill="#8478a3"
     id="path22"
     style="display:inline" />
  <path
     d="m 22.465,48.593 -0.552,-0.017 -0.659,-0.067 -0.948,-0.142 -0.9,-0.211 -0.94,-0.304 c -0.269,-0.1 -0.761,-0.315 -1.095,-0.479 L 16.356,46.819 15.483,46.215 14.587,45.473 A 12.46,12.46 0 0 1 13.814,44.694 L 13.273,44.06 c -0.11,-0.137 -0.34,-0.458 -0.511,-0.712 L 12.241,42.511 11.81,41.655 11.425,40.717 c -0.091,-0.25 -0.228,-0.699 -0.304,-0.996 L 10.928,38.896 10.836,38.344 9.73,29.01 8.619,19.316 C 8.583,18.774 8.586,18.584 8.639,17.945 l 0.132,-1.151 0.176,-0.844 0.251,-0.881 0.321,-0.873 0.353,-0.78 0.363,-0.67 0.426,-0.675 0.533,-0.727 0.621,-0.727 c 0.181,-0.197 0.509,-0.519 0.729,-0.715 l 0.744,-0.618 0.682,-0.483 0.623,-0.384 0.57,-0.305 0.625,-0.287 0.815,-0.307 0.978,-0.286 0.823,-0.177 9.385,-1.121 9.581,-1.11 a 8.92,8.92 0 0 1 0.997,-0.02 l 0.962,0.078 0.93,0.143 0.9,0.211 0.94,0.304 c 0.269,0.1 0.761,0.315 1.095,0.479 l 1.015,0.554 0.873,0.604 0.896,0.742 a 12.46,12.46 0 0 1 0.773,0.779 l 0.541,0.634 c 0.11,0.137 0.34,0.458 0.511,0.712 l 0.521,0.837 0.431,0.856 0.385,0.938 c 0.091,0.25 0.228,0.699 0.304,0.996 l 0.193,0.825 0.092,0.552 1.106,9.332 1.111,9.694 c 0.036,0.542 0.033,0.732 -0.02,1.371 l -0.132,1.151 -0.176,0.844 -0.251,0.881 -0.321,0.873 -0.353,0.78 -0.363,0.67 -0.426,0.675 -0.533,0.727 -0.621,0.727 c -0.181,0.197 -0.509,0.519 -0.729,0.715 l -0.744,0.618 -0.682,0.483 -0.623,0.384 -0.57,0.305 -0.625,0.287 -0.815,0.307 -0.978,0.286 -0.823,0.177 -9.261,1.108 -9.492,1.104 -0.944,0.045 z M 13.879,36.24 H 15.5 l 0.052,-0.08 c 0.029,-0.044 0.495,-1.247 1.036,-2.674 l 0.973,-2.671 c -0.01,-0.071 0.017,-0.082 0.346,-0.139 l 0.677,-0.153 0.57,-0.184 a 8.32,8.32 0 0 0 0.626,-0.281 7.96,7.96 0 0 0 0.761,-0.449 l 0.445,-0.306 c 0.052,-0.038 0.085,-0.027 0.22,0.076 l 0.46,0.317 a 7.97,7.97 0 0 0 0.657,0.373 l 0.606,0.27 0.572,0.185 a 7.73,7.73 0 0 0 0.695,0.154 c 0.341,0.057 0.373,0.069 0.384,0.145 0.007,0.046 0.377,1.087 0.823,2.314 l 0.942,2.649 c 0.108,0.347 0.144,0.421 0.21,0.437 0.043,0.011 4.735,0.015 10.426,0.009 l 10.347,-0.01 0.213,-0.086 c 0.145,-0.059 0.277,-0.149 0.413,-0.285 0.136,-0.136 0.227,-0.267 0.285,-0.413 l 0.086,-0.213 0.011,-8.353 -0.03,-8.566 c -0.022,-0.118 -0.09,-0.307 -0.15,-0.421 -0.06,-0.114 -0.175,-0.263 -0.254,-0.33 A 1.74,1.74 0 0 0 47.579,17.347 C 47.48,17.3 47.303,17.244 47.186,17.222 47.028,17.192 43.392,17.184 33.313,17.192 l -13.66,0.01 -2.169,5.521 -2.178,5.66 c -0.005,0.076 -0.032,0.152 -0.06,0.167 -0.028,0.015 -0.154,0.045 -0.28,0.066 -0.208,0.034 -0.244,0.03 -0.389,-0.043 -0.088,-0.044 -0.196,-0.133 -0.239,-0.198 -0.043,-0.065 -0.089,-0.191 -0.103,-0.28 -0.015,-0.097 -0.007,-0.22 0.02,-0.309 0.024,-0.081 0.077,-0.194 0.117,-0.25 0.04,-0.056 0.138,-0.132 0.219,-0.168 a 0.86,0.86 0 0 1 0.292,-0.067 c 0.1,-10e-4 0.184,0.027 0.267,0.087 0.067,0.049 0.158,0.108 0.204,0.132 0.067,0.035 0.089,0.034 0.115,-0.008 0.018,-0.028 0.033,-0.062 0.033,-0.074 0,-0.012 -0.052,-0.1 -0.115,-0.195 -0.063,-0.095 -0.192,-0.219 -0.291,-0.28 -0.158,-0.097 -0.204,-0.108 -0.466,-0.107 a 0.93,0.93 0 0 0 -0.561,0.134 c -0.186,0.092 -0.323,0.192 -0.439,0.32 a 2.28,2.28 0 0 0 -0.296,0.454 c -0.117,0.244 -0.129,0.299 -0.141,0.643 -0.011,0.328 -0.002,0.408 0.074,0.627 a 2.42,2.42 0 0 0 0.22,0.451 2.62,2.62 0 0 0 0.336,0.388 c 0.112,0.104 0.307,0.243 0.434,0.31 0.127,0.067 0.25,0.136 0.274,0.155 0.033,0.026 0.028,0.048 -0.025,0.093 -0.041,0.035 -0.517,1.2 -1.177,2.886 l -1.089,2.876 c 0.016,0.041 0.297,0.049 1.64,0.049 z m 24.102,-1.46 c -4.76,0 -8.662,-0.012 -8.672,-0.027 -0.01,-0.015 -0.154,-0.394 -0.323,-0.842 C 28.817,33.463 28.68,33.074 28.68,33.048 28.68,33.008 29.272,33 32.207,33 l 3.646,-0.049 c 0.065,-0.027 0.154,-0.1 0.198,-0.162 a 0.66,0.66 0 0 0 0.098,-0.248 c 0.012,-0.087 -0.003,-0.175 -0.04,-0.247 -0.032,-0.062 -0.101,-0.141 -0.154,-0.175 -0.089,-0.059 -0.346,-0.064 -3.885,-0.08 l -3.789,-0.018 -0.277,-0.738 c -0.152,-0.406 -0.268,-0.746 -0.258,-0.757 0.01,-0.011 0.982,-0.019 2.159,-0.019 2.058,0 2.144,-0.003 2.254,-0.07 0.063,-0.038 0.139,-0.109 0.171,-0.156 A 0.65,0.65 0 0 0 32.407,30.07 0.44,0.44 0 0 0 32.363,29.812 C 32.317,29.715 32.257,29.659 32.146,29.61 32,29.546 31.901,29.543 30.282,29.552 c -0.94,0.006 -1.71,0.004 -1.71,-0.004 a 1.29,1.29 0 0 1 0.086,-0.162 2.41,2.41 0 0 0 0.16,-0.367 c 0.053,-0.159 0.074,-0.31 0.074,-0.543 a 1.59,1.59 0 0 0 -0.073,-0.54 2.18,2.18 0 0 0 -0.19,-0.4 1.89,1.89 0 0 0 -0.27,-0.32 1.92,1.92 0 0 0 -0.389,-0.248 c -0.202,-0.095 -0.277,-0.111 -0.524,-0.112 -0.258,-0.001 -0.306,0.01 -0.463,0.107 a 1.04,1.04 0 0 0 -0.3,0.296 c -0.101,0.153 -0.129,0.176 -0.148,0.124 l -0.353,-0.955 -0.346,-0.935 c -0.013,-0.036 2.09,-0.045 10.44,-0.045 l 10.493,0.069 c 0.025,0.046 0.037,1.538 0.037,4.579 v 4.51 l -0.087,0.087 -0.087,0.087 z m 5.203,-1.434 c 1.986,-0.008 2.02,-0.01 2.119,-0.083 a 0.96,0.96 0 0 0 0.182,-0.194 l 0.081,-0.119 -0.01,-1.926 -0.01,-1.926 -0.079,-0.111 a 0.62,0.62 0 0 0 -0.201,-0.169 c -0.108,-0.051 -0.352,-0.058 -2.147,-0.058 -1.958,0 -2.029,0.003 -2.141,0.071 a 0.67,0.67 0 0 0 -0.187,0.187 c -0.068,0.112 -0.071,0.183 -0.071,2.035 0,1.903 0,1.92 0.077,2.043 a 0.57,0.57 0 0 0 0.223,0.191 c 0.138,0.063 0.257,0.066 2.165,0.058 z M 34.7,30.506 c 1.144,0 1.342,-0.008 1.446,-0.057 a 0.54,0.54 0 0 0 0.192,-0.173 c 0.044,-0.072 0.072,-0.178 0.072,-0.278 0,-0.122 -0.023,-0.189 -0.092,-0.271 -0.05,-0.06 -0.151,-0.126 -0.223,-0.148 -0.087,-0.026 -0.565,-0.035 -1.413,-0.027 -1.19,0.01 -1.289,0.016 -1.382,0.079 -0.055,0.037 -0.123,0.113 -0.151,0.167 -0.028,0.054 -0.052,0.175 -0.052,0.266 0,0.146 0.017,0.183 0.138,0.305 l 0.138,0.138 z M 27.363,28.63 c -0.049,0.009 -0.164,0.004 -0.256,-0.012 -0.092,-0.016 -0.185,-0.04 -0.207,-0.053 -0.028,-0.017 -0.028,-0.037 -10e-4,-0.07 0.027,-0.033 0.008,-0.132 -0.073,-0.362 -0.061,-0.174 -0.134,-0.359 -0.161,-0.412 -0.027,-0.053 -0.049,-0.109 -0.049,-0.126 0,-0.017 0.044,-0.049 0.098,-0.073 0.054,-0.024 0.152,-0.083 0.219,-0.132 a 0.42,0.42 0 0 1 0.267,-0.089 0.86,0.86 0 0 1 0.292,0.067 c 0.08,0.036 0.179,0.112 0.219,0.168 0.04,0.056 0.093,0.169 0.117,0.25 0.027,0.089 0.035,0.212 0.02,0.309 -0.013,0.089 -0.059,0.214 -0.103,0.278 -0.044,0.064 -0.127,0.144 -0.185,0.178 -0.058,0.034 -0.147,0.069 -0.196,0.079 z m -6.328,-1.331 c -0.016,-0.001 -0.094,-0.058 -0.172,-0.127 a 1.93,1.93 0 0 0 -0.369,-0.234 c -0.125,-0.059 -0.373,-0.138 -0.552,-0.175 -0.179,-0.037 -0.423,-0.067 -0.543,-0.068 -0.12,-0.001 -0.226,-0.01 -0.237,-0.021 -0.011,-0.011 0.009,-0.072 0.044,-0.134 0.035,-0.062 0.486,-1.223 1,-2.579 l 0.958,-2.467 c 0.013,0 0.429,1.138 0.925,2.528 l 0.95,2.569 c 0.027,0.022 0.049,0.055 0.049,0.072 0,0.017 -0.14,0.031 -0.312,0.032 -0.172,0.001 -0.458,0.031 -0.638,0.068 a 2.94,2.94 0 0 0 -0.552,0.175 2.06,2.06 0 0 0 -0.374,0.235 c -0.081,0.07 -0.162,0.126 -0.178,0.125 z M 35.628,22.065 H 24.556 l -0.614,-1.647 -0.631,-1.692 c -0.013,-0.036 2.342,-0.045 11.704,-0.045 l 11.758,0.069 c 0.024,0.044 0.037,0.617 0.037,1.613 0,1.34 -0.007,1.554 -0.055,1.623 L 46.7,22.065 Z"
     fill="#f0f0f2"
     id="path28"
     style="display:inline" />
  <path
     d="M 30.443,45.522 C 24.012,45.526 19.318,45.514 19.152,45.496 18.995,45.478 18.675,45.425 18.44,45.377 18.205,45.329 17.868,45.249 17.692,45.198 17.516,45.147 17.187,45.033 16.962,44.944 16.737,44.855 16.372,44.688 16.151,44.573 15.93,44.458 15.593,44.261 15.402,44.135 a 10.23,10.23 0 0 1 -0.649,-0.472 11.54,11.54 0 0 1 -0.618,-0.547 c -0.174,-0.167 -0.444,-0.456 -0.599,-0.642 -0.155,-0.186 -0.392,-0.499 -0.525,-0.695 -0.133,-0.196 -0.323,-0.5 -0.422,-0.677 a 9.11,9.11 0 0 1 -0.327,-0.656 c -0.081,-0.185 -0.208,-0.513 -0.283,-0.73 A 9.95,9.95 0 0 1 11.751,38.929 12.92,12.92 0 0 1 11.595,38.128 C 11.535,37.741 11.531,37.122 11.531,26.694 L 11.595,15.26 a 12.92,12.92 0 0 1 0.156,-0.801 c 0.051,-0.215 0.154,-0.572 0.23,-0.793 0.076,-0.221 0.211,-0.563 0.3,-0.762 0.089,-0.199 0.236,-0.491 0.325,-0.65 a 11.42,11.42 0 0 1 0.405,-0.645 c 0.133,-0.196 0.369,-0.508 0.525,-0.695 0.156,-0.187 0.425,-0.475 0.599,-0.641 0.174,-0.166 0.442,-0.405 0.596,-0.53 A 10.73,10.73 0 0 1 15.408,9.251 C 15.627,9.106 16.03,8.877 16.304,8.742 16.578,8.607 16.963,8.438 17.159,8.366 a 9.79,9.79 0 0 1 0.819,-0.249 c 0.255,-0.064 0.639,-0.146 0.855,-0.183 0.375,-0.063 0.87,-0.066 11.451,-0.066 l 11.451,0.066 a 13.14,13.14 0 0 1 0.855,0.183 c 0.255,0.064 0.623,0.176 0.819,0.249 0.196,0.073 0.581,0.242 0.855,0.376 0.274,0.134 0.677,0.363 0.896,0.509 a 10.73,10.73 0 0 1 0.677,0.492 c 0.154,0.125 0.422,0.364 0.596,0.53 0.174,0.166 0.444,0.455 0.599,0.641 0.155,0.186 0.392,0.499 0.525,0.695 0.133,0.196 0.323,0.5 0.422,0.677 a 9.11,9.11 0 0 1 0.327,0.656 c 0.081,0.185 0.208,0.513 0.283,0.73 0.075,0.217 0.177,0.571 0.228,0.787 a 12.92,12.92 0 0 1 0.156,0.801 c 0.06,0.387 0.064,1.006 0.064,11.434 l -0.064,11.434 a 12.92,12.92 0 0 1 -0.156,0.801 9.95,9.95 0 0 1 -0.228,0.787 c -0.075,0.217 -0.202,0.546 -0.283,0.73 a 9.11,9.11 0 0 1 -0.327,0.656 c -0.099,0.176 -0.289,0.481 -0.422,0.677 -0.133,0.196 -0.369,0.508 -0.525,0.695 -0.156,0.187 -0.425,0.475 -0.599,0.641 a 11.99,11.99 0 0 1 -0.596,0.53 10.73,10.73 0 0 1 -0.677,0.492 c -0.219,0.145 -0.622,0.374 -0.896,0.509 -0.274,0.135 -0.658,0.303 -0.853,0.375 a 9.76,9.76 0 0 1 -0.748,0.233 15.58,15.58 0 0 1 -0.803,0.182 l -0.41,0.079 z M 13.879,36.24 H 15.5 l 0.052,-0.08 c 0.029,-0.044 0.495,-1.247 1.036,-2.674 l 0.973,-2.671 c -0.01,-0.071 0.017,-0.082 0.346,-0.139 0.196,-0.034 0.5,-0.103 0.677,-0.153 a 8.97,8.97 0 0 0 0.57,-0.184 8.32,8.32 0 0 0 0.626,-0.281 7.96,7.96 0 0 0 0.761,-0.449 l 0.445,-0.306 c 0.052,-0.038 0.085,-0.027 0.22,0.076 0.087,0.067 0.294,0.209 0.46,0.317 a 7.97,7.97 0 0 0 0.657,0.373 c 0.196,0.097 0.468,0.219 0.606,0.27 0.138,0.051 0.395,0.134 0.572,0.185 a 7.73,7.73 0 0 0 0.695,0.154 c 0.341,0.057 0.373,0.069 0.384,0.145 0.007,0.046 0.377,1.087 0.823,2.314 l 0.942,2.649 c 0.108,0.347 0.144,0.421 0.21,0.437 0.043,0.011 4.735,0.015 10.426,0.009 l 10.347,-0.01 0.213,-0.086 c 0.145,-0.059 0.277,-0.149 0.413,-0.285 0.136,-0.136 0.227,-0.267 0.285,-0.413 l 0.086,-0.213 0.011,-8.353 -0.03,-8.566 c -0.022,-0.118 -0.09,-0.307 -0.15,-0.421 -0.06,-0.114 -0.175,-0.263 -0.254,-0.33 A 1.74,1.74 0 0 0 47.579,17.347 C 47.48,17.3 47.303,17.244 47.186,17.222 47.028,17.192 43.392,17.184 33.313,17.192 l -13.66,0.01 -2.169,5.521 -2.178,5.66 c -0.005,0.076 -0.032,0.152 -0.06,0.167 -0.028,0.015 -0.154,0.045 -0.28,0.066 -0.208,0.034 -0.244,0.03 -0.389,-0.043 -0.088,-0.044 -0.196,-0.133 -0.239,-0.198 -0.043,-0.065 -0.089,-0.191 -0.103,-0.28 -0.015,-0.097 -0.007,-0.22 0.02,-0.309 0.024,-0.081 0.077,-0.194 0.117,-0.25 0.04,-0.056 0.138,-0.132 0.219,-0.168 a 0.86,0.86 0 0 1 0.292,-0.067 c 0.1,-10e-4 0.184,0.027 0.267,0.087 0.067,0.049 0.158,0.108 0.204,0.132 0.067,0.035 0.089,0.034 0.115,-0.008 0.018,-0.028 0.033,-0.062 0.033,-0.074 0,-0.012 -0.052,-0.1 -0.115,-0.195 -0.063,-0.095 -0.192,-0.219 -0.291,-0.28 -0.158,-0.097 -0.204,-0.108 -0.466,-0.107 a 0.93,0.93 0 0 0 -0.561,0.134 c -0.186,0.092 -0.323,0.192 -0.439,0.32 a 2.28,2.28 0 0 0 -0.296,0.454 c -0.117,0.244 -0.129,0.299 -0.141,0.643 -0.011,0.328 -0.002,0.408 0.074,0.627 a 2.42,2.42 0 0 0 0.22,0.451 2.62,2.62 0 0 0 0.336,0.388 c 0.112,0.104 0.307,0.243 0.434,0.31 0.127,0.067 0.25,0.136 0.274,0.155 0.033,0.026 0.028,0.048 -0.025,0.093 -0.041,0.035 -0.517,1.2 -1.177,2.886 l -1.089,2.876 c 0.016,0.041 0.297,0.049 1.64,0.049 z m 24.102,-1.46 c -4.76,0 -8.662,-0.012 -8.672,-0.027 -0.01,-0.015 -0.154,-0.394 -0.323,-0.842 C 28.817,33.463 28.68,33.074 28.68,33.048 28.68,33.008 29.272,33 32.207,33 l 3.646,-0.049 c 0.065,-0.027 0.154,-0.1 0.198,-0.162 a 0.66,0.66 0 0 0 0.098,-0.248 c 0.012,-0.087 -0.003,-0.175 -0.04,-0.247 -0.032,-0.062 -0.101,-0.141 -0.154,-0.175 -0.089,-0.059 -0.346,-0.064 -3.885,-0.08 l -3.789,-0.018 -0.277,-0.738 c -0.152,-0.406 -0.268,-0.746 -0.258,-0.757 0.01,-0.011 0.982,-0.019 2.159,-0.019 2.058,0 2.144,-0.003 2.254,-0.07 0.063,-0.038 0.139,-0.109 0.171,-0.156 A 0.65,0.65 0 0 0 32.407,30.07 0.44,0.44 0 0 0 32.363,29.812 C 32.317,29.715 32.257,29.659 32.146,29.61 32,29.546 31.901,29.543 30.282,29.552 c -0.94,0.006 -1.71,0.004 -1.71,-0.004 a 1.29,1.29 0 0 1 0.086,-0.162 2.41,2.41 0 0 0 0.16,-0.367 c 0.053,-0.159 0.074,-0.31 0.074,-0.543 a 1.59,1.59 0 0 0 -0.073,-0.54 2.18,2.18 0 0 0 -0.19,-0.4 1.89,1.89 0 0 0 -0.27,-0.32 1.92,1.92 0 0 0 -0.389,-0.248 c -0.202,-0.095 -0.277,-0.111 -0.524,-0.112 -0.258,-0.001 -0.306,0.01 -0.463,0.107 a 1.04,1.04 0 0 0 -0.3,0.296 c -0.101,0.153 -0.129,0.176 -0.148,0.124 l -0.353,-0.955 -0.346,-0.935 c -0.013,-0.036 2.09,-0.045 10.44,-0.045 l 10.493,0.069 c 0.025,0.046 0.037,1.538 0.037,4.579 v 4.51 l -0.087,0.087 -0.087,0.087 z m 5.203,-1.434 c 1.986,-0.008 2.02,-0.01 2.119,-0.083 a 0.96,0.96 0 0 0 0.182,-0.194 l 0.081,-0.119 -0.01,-1.926 -0.01,-1.926 -0.079,-0.111 a 0.62,0.62 0 0 0 -0.201,-0.169 c -0.108,-0.051 -0.352,-0.058 -2.147,-0.058 -1.958,0 -2.029,0.003 -2.141,0.071 a 0.67,0.67 0 0 0 -0.187,0.187 c -0.068,0.112 -0.071,0.183 -0.071,2.035 0,1.903 0,1.92 0.077,2.043 a 0.57,0.57 0 0 0 0.223,0.191 c 0.138,0.063 0.257,0.066 2.165,0.058 z M 34.7,30.506 c 1.144,0 1.342,-0.008 1.446,-0.057 a 0.54,0.54 0 0 0 0.192,-0.173 c 0.044,-0.072 0.072,-0.178 0.072,-0.278 0,-0.122 -0.023,-0.189 -0.092,-0.271 -0.05,-0.06 -0.151,-0.126 -0.223,-0.148 -0.087,-0.026 -0.565,-0.035 -1.413,-0.027 -1.19,0.01 -1.289,0.016 -1.382,0.079 -0.055,0.037 -0.123,0.113 -0.151,0.167 -0.028,0.054 -0.052,0.175 -0.052,0.266 0,0.146 0.017,0.183 0.138,0.305 l 0.138,0.138 z M 27.363,28.63 c -0.049,0.009 -0.164,0.004 -0.256,-0.012 -0.092,-0.016 -0.185,-0.04 -0.207,-0.053 -0.028,-0.017 -0.028,-0.037 -10e-4,-0.07 0.027,-0.033 0.008,-0.132 -0.073,-0.362 -0.061,-0.174 -0.134,-0.359 -0.161,-0.412 -0.027,-0.053 -0.049,-0.109 -0.049,-0.126 0,-0.017 0.044,-0.049 0.098,-0.073 0.054,-0.024 0.152,-0.083 0.219,-0.132 a 0.42,0.42 0 0 1 0.267,-0.089 0.86,0.86 0 0 1 0.292,0.067 c 0.08,0.036 0.179,0.112 0.219,0.168 0.04,0.056 0.093,0.169 0.117,0.25 0.027,0.089 0.035,0.212 0.02,0.309 -0.013,0.089 -0.059,0.214 -0.103,0.278 -0.044,0.064 -0.127,0.144 -0.185,0.178 -0.058,0.034 -0.147,0.069 -0.196,0.079 z m -6.328,-1.331 c -0.016,-0.001 -0.094,-0.058 -0.172,-0.127 a 1.93,1.93 0 0 0 -0.369,-0.234 c -0.125,-0.059 -0.373,-0.138 -0.552,-0.175 -0.179,-0.037 -0.423,-0.067 -0.543,-0.068 -0.12,-0.001 -0.226,-0.01 -0.237,-0.021 -0.011,-0.011 0.009,-0.072 0.044,-0.134 0.035,-0.062 0.486,-1.223 1,-2.579 l 0.958,-2.467 c 0.013,0 0.429,1.138 0.925,2.528 l 0.95,2.569 c 0.027,0.022 0.049,0.055 0.049,0.072 0,0.017 -0.14,0.031 -0.312,0.032 -0.172,0.001 -0.458,0.031 -0.638,0.068 a 2.94,2.94 0 0 0 -0.552,0.175 2.06,2.06 0 0 0 -0.374,0.235 c -0.081,0.07 -0.162,0.126 -0.178,0.125 z M 35.628,22.065 H 24.556 l -0.614,-1.647 -0.631,-1.692 c -0.013,-0.036 2.342,-0.045 11.704,-0.045 l 11.758,0.069 c 0.024,0.044 0.037,0.617 0.037,1.613 0,1.34 -0.007,1.554 -0.055,1.623 L 46.7,22.065 Z"
     fill="#ffffff"
     id="path30"
     style="display:inline" />
  <g
     fill="#37255f"
     stroke="#37255f"
     id="g44"
     style="display:inline">
    <g
       stroke-width="0.347"
       stroke-miterlimit="5.3"
       id="g38">
      <path
         d="m 26.409,35.63 -0.902,-2.554 -0.74,-2.095 c 0.006,0.019 0.161,-0.073 0.664,-0.035 0.364,0.027 0.969,-0.073 1.342,-0.162 l 0.823,-0.2 c 0.044,-0.002 0.149,0.371 0.312,0.786 l 0.296,0.753 3.834,0.025 3.926,0.197 c 0.066,0.124 0.052,0.23 -0.05,0.376 -0.141,0.202 -0.162,0.203 -3.768,0.203 H 28.52 l 0.063,0.212 c 0.035,0.117 0.196,0.551 0.359,0.965 l 0.296,0.753 8.698,0.024 8.826,-0.082 c 0.105,-0.087 0.128,-0.951 0.128,-4.745 l -0.149,-4.696 c -0.217,-0.083 -21.033,-0.07 -21.034,0.013 0,0.15 0.819,2.333 0.988,2.668 0.098,0.194 0.769,2.454 0.722,2.454 -0.047,0 -1.317,-2.585 -1.908,-2.965 -1.01,-0.651 -1.774,-1.003 -2.178,-1.003 -0.213,0 -0.227,-0.032 -1.256,-2.891 L 21.22,21.322 c -0.037,-0.059 -0.087,-0.046 -0.132,0.034 -0.063,0.112 -1.175,2.997 -1.784,4.625 -0.184,0.491 -0.228,0.541 -0.48,0.541 -0.498,0 -1.475,0.49 -2.506,1.172 -0.556,0.368 -3.753,8.265 -1.008,0.556 0.021,-0.059 1.175,-2.663 2.327,-5.589 l 2.094,-5.319 13.69,-0.024 14.088,0.169 c 0.743,0.36 0.698,-0.232 0.698,9.284 0,8.318 -0.004,8.464 -0.19,8.77 -0.374,0.613 0.202,0.583 -11.143,0.583 H 26.571 Z m 20.46,-15.24 0.026,-1.754 -0.214,-0.057 C 46.336,18.487 23.278,18.51 23.22,18.602 c -0.041,0.067 0.541,1.74 1.159,3.33 l 0.101,0.259 11.182,-0.024 11.182,-0.024 z"
         paint-order="stroke fill markers"
         id="path32" />
      <path
         d="m 15.843,30.571 c -1.659,-0.255 -2.683,-1.209 -2.514,-2.34 0.051,-0.34 0.153,-0.522 0.467,-0.837 0.342,-0.342 0.46,-0.402 0.786,-0.402 0.211,0 0.393,0.057 0.442,0.094 0.996,0.762 -0.048,0.094 -0.187,0.094 -0.362,0 -0.707,0.39 -0.707,0.8 0,0.359 0.333,0.8 0.604,0.8 0.33,0 1.077,-0.333 1.82,-0.813 1.122,-0.724 1.608,-0.963 2.22,-1.091 0.653,-0.137 1.371,-0.012 1.919,0.334 0.364,0.23 0.37,0.23 0.597,0.054 0.306,-0.237 1.063,-0.461 1.561,-0.461 0.572,0 1.294,0.297 2.308,0.949 1.57,1.01 2.264,1.21 2.63,0.757 0.419,-0.518 0.059,-1.327 -0.594,-1.333 -0.269,-0.003 -1.003,0.761 -0.178,-0.064 0.259,-0.259 0.95,-0.071 1.311,0.289 0.279,0.279 0.336,0.41 0.373,0.85 0.057,0.69 -0.015,0.934 -0.404,1.365 -0.468,0.518 -1.275,0.851 -2.33,0.96 -1.633,0.169 -3.086,-0.205 -4.464,-1.15 -0.216,-0.148 -0.421,-0.27 -0.454,-0.27 -0.033,0 -0.237,0.121 -0.454,0.27 -0.577,0.395 -1.253,0.719 -1.947,0.932 -0.711,0.218 -2.088,0.322 -2.806,0.212 z"
         paint-order="stroke fill markers"
         id="path34" />
      <path
         d="m 12.462,35.933 c 0.027,-0.105 0.505,-1.351 1.062,-2.769 1.005,-2.56 1,-2.522 1.244,-2.49 l 1.51,0.168 1.131,0.008 -0.472,1.354 -0.984,2.578 -0.524,1.342 h -1.508 c -1.468,0 -1.507,-0.005 -1.459,-0.191 z"
         paint-order="stroke fill markers"
         id="path36" />
    </g>
    <path
       d="m 40.979,33.092 c -0.16,-0.16 -0.16,-3.945 0,-4.105 0.081,-0.081 0.692,-0.113 2.154,-0.113 1.787,0 2.057,0.019 2.17,0.156 0.1,0.121 0.129,0.577 0.129,2.01 0,1.433 -0.029,1.889 -0.129,2.009 -0.113,0.136 -0.387,0.156 -2.17,0.156 -1.462,0 -2.073,-0.032 -2.154,-0.113 z"
       fill-rule="nonzero"
       stroke-width="0.441"
       id="path40" />
    <path
       d="m 33.277,30.245 c -0.102,-0.266 0.013,-0.475 0.294,-0.535 0.364,-0.078 1.987,-0.078 2.351,0 0.308,0.066 0.416,0.313 0.233,0.534 -0.166,0.2 -2.802,0.201 -2.879,0.001 z m -5.167,0.026 c 0.118,-0.001 -0.408,-0.356 -0.287,-0.492 0.214,-0.24 0.948,-0.106 2.234,-0.138 1.977,-0.049 2.409,0.063 2.145,0.557 -0.092,0.171 -0.218,0.181 -2.189,0.179 -1.578,-0.002 -9.339,-0.064 -1.903,-0.107 z"
       paint-order="stroke fill markers"
       stroke-width="0.347"
       stroke-miterlimit="5.3"
       id="path42" />
  </g>
</svg>
